PathFileType	4	(x/y/z)	S08_PSF_T04
DataRate	CameraRate	NumFrames	NumMarkers	Units	OrigDataRate	OrigDataStartFrame	OrigNumFrames
240	240	4	51	mm	240	368	420
Frame#	Time	Sternum			R.Acromium			L.Acromium			Top.Head			R.ASIS			L.ASIS			R.PSIS			L.PSIS			R.Great.Tro			L.Great.Tro			R.Iliac.Crest			L.Iliac.Crest			V.Sacral			R.Thigh.Upper.Post			R.Thigh.Lower.Ant			R.Thigh.Lower.Post			R.Thigh.Upper.Ant			R.Knee.Lat			R.Knee.Med			R.Shank.Upper.Post			R.Shank.Lower.Ant			R.Shank.Lower.Post			R.Shank.Upper.Ant			R.Ankle.Lat			R.Ankle.Med			R.Heel.Upper			R.Heel.Med			R.Heel.Lat			R.Toe.Lat			R.Toe.Med			R.Toe.Tip			L.Thigh.Upper.Post			L.Thigh.Lower.Ant			L.Thigh.Lower.Post			L.Thigh.Upper.Ant			L.Knee.Lat			L.Knee.Med			L.Shank.Upper.Post			L.Shank.Lower.Ant			L.Shank.Lower.Post			L.Shank.Upper.Ant			L.Ankle.Lat			L.Ankle.Med			L.Heel.Upper			L.Heel.Med			L.Heel.Lat			L.Toe.Lat			L.Toe.Med			L.Toe.Tip			Cervical.Spine			Back			
		X1	Y1	Z1	X2	Y2	Z2	X3	Y3	Z3	X4	Y4	Z4	X5	Y5	Z5	X6	Y6	Z6	X7	Y7	Z7	X8	Y8	Z8	X9	Y9	Z9	X10	Y10	Z10	X11	Y11	Z11	X12	Y12	Z12	X13	Y13	Z13	X14	Y14	Z14	X15	Y15	Z15	X16	Y16	Z16	X17	Y17	Z17	X18	Y18	Z18	X19	Y19	Z19	X20	Y20	Z20	X21	Y21	Z21	X22	Y22	Z22	X23	Y23	Z23	X24	Y24	Z24	X25	Y25	Z25	X26	Y26	Z26	X27	Y27	Z27	X28	Y28	Z28	X29	Y29	Z29	X30	Y30	Z30	X31	Y31	Z31	X32	Y32	Z32	X33	Y33	Z33	X34	Y34	Z34	X35	Y35	Z35	X36	Y36	Z36	X37	Y37	Z37	X38	Y38	Z38	X39	Y39	Z39	X40	Y40	Z40	X41	Y41	Z41	X42	Y42	Z42	X43	Y43	Z43	X44	Y44	Z44	X45	Y45	Z45	X46	Y46	Z46	X47	Y47	Z47	X48	Y48	Z48	X49	Y49	Z49	X50	Y50	Z50	X51	Y51	Z51	

368	1.5292	491.13	1220.7	329.49	384.76	1459.7	507.04	370.04	1491.9	173.62	394.07	1779.7	352.01	472.17	1012.7	436.78	462.95	1013.7	203.93	267.82	1032.4	373.21	267.79	1039.3	279.22	416.78	905.82	512.54	361.38	909.81	144.8	377.17	1078.2	488.58	368.49	1095	180.51	252.36	995.53	324.29	467.04	707.9	504.91	572.77	642.63	472.57	503.58	626.8	485.81	540.79	730.85	491.46	579	544.42	466.58	553.25	534.16	340.86	566.99	352.58	477.54	643.97	309.34	459.17	588.19	278.3	471.47	622.88	383.89	466.53	638.95	113.06	439.4	667.2	140.2	362.37	610.21	63.712	387.92	632.15	44.541	361.19	621.28	41.563	422.21	NaN	NaN	NaN	803.74	110.33	364.42	854.63	148.87	413.58	314	718.3	157.19	377.26	613.33	189.34	310.95	627.13	180.12	381.61	699.25	163.33	301.72	518.51	205.15	300.66	521.69	330.27	198.65	354.61	206.19	242.86	255.57	235.08	178.03	285.28	224.36	257.89	328.79	216.76	159.11	111.9	248.9	178.41	113.98	334.02	98.516	87.206	295.27	108.62	50.239	324.59	104.89	61.109	260.47	280.88	39.14	228.49	297.09	36.697	344.91	364.05	48.065	297.49	312.1	1519.9	335.4	258.13	1238.6	341.55
369	1.5333	496.49	1219.8	329.67	390.05	1458.8	507.2	375.56	1491.1	173.8	399.3	1778.9	352.31	477.53	1011.8	436.91	468.17	1012.9	204.06	273.16	1031.5	373.53	273.12	1038.5	279.62	422.11	904.89	512.72	366.26	909.31	144.84	382.71	1077.3	488.8	373.73	1094.3	180.73	257.68	994.71	324.59	471.4	706.72	505.15	576.96	641.18	472.61	507.75	625.52	485.93	545.24	729.46	491.64	583.4	543.27	466.55	557.33	532.88	340.79	574.83	351.28	477.3	652.7	309.53	458.72	597.5	277.39	471.05	630.11	383.7	466.29	651.87	113.01	438.63	679.43	140.98	361.6	624.24	63.037	387.1	646.54	44.461	360.25	635.83	41.087	421.29	NaN	NaN	NaN	816.72	114.11	363.39	866.81	153.66	412.57	317.96	718.24	157.15	380.69	612.89	189.18	314.45	627.04	180.07	385.46	698.8	163.21	304.6	518.39	205.07	303.82	521.49	330.22	200.51	355.1	206.15	244.15	255.77	234.92	179.49	285.88	224.33	259.61	328.89	216.65	159.57	112.5	248.83	178.93	114.57	333.92	98.855	88.026	295.2	108.8	51.083	324.58	105.11	61.842	260.44	280.95	39.077	228.44	297.2	36.764	344.86	364.19	47.816	297.42	317.48	1519.1	335.51	263.49	1237.8	341.62
370	1.5375	501.86	1218.9	329.85	395.34	1458	507.36	381.09	1490.4	174	404.53	1778	352.62	482.92	1011	437.04	473.41	1012.2	204.18	278.52	1030.7	373.85	278.48	1037.6	280.02	427.48	903.96	512.89	371.17	908.81	144.89	388.26	1076.5	489.02	378.99	1093.5	180.96	263.03	993.89	324.9	475.84	705.59	505.38	581.25	639.77	472.65	512.02	624.27	486.06	549.79	728.1	491.81	587.85	542.13	466.53	561.45	531.62	340.73	582.52	350.04	477.04	661.2	309.72	458.26	606.57	276.53	470.61	637.2	383.49	466.04	664.37	113.04	437.81	691.27	141.81	360.79	637.82	62.489	386.23	660.46	44.497	359.25	649.9	40.729	420.32	NaN	NaN	NaN	829.21	117.82	362.36	878.52	158.31	411.58	321.98	718.16	157.12	384.2	612.44	189.02	318.01	626.93	180.03	389.36	698.34	163.1	307.56	518.27	204.99	307.06	521.29	330.18	202.46	355.62	206.1	245.48	255.98	234.76	181.02	286.49	224.31	261.41	329	216.54	160.07	113.15	248.74	179.47	115.19	333.8	99.218	88.901	295.12	109	51.984	324.56	105.34	62.625	260.4	281.03	39.011	228.39	297.32	36.842	344.8	364.34	47.561	297.36	322.86	1518.4	335.63	268.86	1237	341.7
371	1.5417	507.25	1218.1	330.05	400.64	1457.2	507.54	386.62	1489.6	174.2	409.76	1777.2	352.93	488.33	1010.2	437.18	478.69	1011.4	204.31	283.91	1029.8	374.17	283.86	1036.8	280.42	432.9	903.04	513.06	376.1	908.31	144.95	393.81	1075.7	489.25	384.27	1092.8	181.2	268.41	993.05	325.21	480.4	704.49	505.62	585.64	638.4	472.67	516.39	623.07	486.18	554.45	726.78	491.98	592.34	541.01	466.51	565.61	530.38	340.67	590.05	348.84	476.76	669.48	309.88	457.79	615.4	275.72	470.13	644.15	383.27	465.79	676.41	113.13	436.95	702.69	142.67	359.96	650.92	62.048	385.31	673.87	44.626	358.19	663.46	40.467	419.28	NaN	NaN	NaN	841.21	121.43	361.33	889.74	162.79	410.61	326.06	718.08	157.09	387.78	611.99	188.87	321.65	626.82	180.01	393.33	697.88	162.99	310.61	518.15	204.93	310.39	521.08	330.15	204.48	356.15	206.05	246.88	256.21	234.6	182.61	287.14	224.27	263.27	329.12	216.43	160.59	113.83	248.64	180.05	115.85	333.67	99.606	89.831	295.03	109.22	52.944	324.52	105.6	63.459	260.35	281.12	38.943	228.33	297.44	36.933	344.75	364.5	47.299	297.29	328.26	1517.6	335.76	274.24	1236.2	341.8
